<svg version="1.1" viewBox="0 0 48 48" xmlns="http://www.w3.org/2000/svg">
 <g transform="translate(0 -1004.4)">
  <path d="m11 1012.4c-0.831 0-1.5 0.669-1.5 1.5v3 0.5h-1.5c-0.51937 0-1.0065 0.1309-1.4316 0.3613-0.08503 0.0461-0.16827 0.0966-0.24805 0.1504s-0.15644 0.1109-0.23047 0.1719c-0.074026 0.061-0.14511 0.1256-0.21289 0.1934-0.20334 0.2033-0.3774 0.4363-0.51562 0.6914-0.046077 0.085-0.089102 0.1719-0.12695 0.2617s-0.070478 0.1813-0.099609 0.2754c-0.058263 0.1881-0.09873 0.3857-0.11914 0.5879-0.010206 0.1011-0.015625 0.2027-0.015625 0.3066v0.7695 6.2305 12.23 0.7695c0 0.1039 0.0054194 0.2055 0.015625 0.3066s0.025006 0.201 0.044922 0.2989c0.039832 0.1956 0.098125 0.3848 0.17383 0.5644 0.037852 0.0898 0.080876 0.1767 0.12695 0.2617 0.046077 0.0851 0.096584 0.1683 0.15039 0.2481 0.053806 0.0798 0.11083 0.1564 0.17188 0.2305 0.24417 0.2961 0.54465 0.5442 0.88477 0.7285 0.17006 0.0921 0.349 0.1683 0.53711 0.2265 0.094053 0.0292 0.19124 0.0543 0.28906 0.0743 0.19564 0.0398 0.39772 0.0605 0.60547 0.0605h32c1.1426 0 2.1318-0.633 2.6387-1.5684 0.046076-0.085 0.089101-0.1719 0.12695-0.2617s0.070478-0.1813 0.099609-0.2754c0.058263-0.1881 0.09873-0.3857 0.11914-0.5879 0.010206-0.1011 0.015625-0.2027 0.015625-0.3066v-7-12.23-0.7695c0-0.2077-0.020715-0.4098-0.060547-0.6055-0.059748-0.2934-0.16255-0.5711-0.30078-0.8261-0.046077-0.0851-0.096584-0.1683-0.15039-0.2481-0.21523-0.3191-0.48949-0.5934-0.80859-0.8086-0.47865-0.3228-1.0564-0.5117-1.6797-0.5117h-1v-2.5-1c0-0.831-0.669-1.5-1.5-1.5h-8.5c-0.831 0-1.5 0.669-1.5 1.5v1 2.5h-6.5v-2.5-1c0-0.831-0.669-1.5-1.5-1.5h-8.5zm13 9.7617c2.1683 0 4.3373 0.0806 4.6172 0.2422 0.55971 0.3232 4.6152 7.3498 4.6152 7.9961s-4.0555 7.6729-4.6152 7.9961c-0.55971 0.3231-8.6747 0.3231-9.2344 0-0.55971-0.3232-4.6152-7.3498-4.6152-7.9961s4.0555-7.6729 4.6152-7.9961c0.27986-0.1616 2.4489-0.2422 4.6172-0.2422z" stroke-linecap="round" stroke-miterlimit="3" stroke-width="3"/>
 </g>
</svg>
